<?xml version="1.0" encoding="utf-8"?>
<!-- Generator: Adobe Illustrator 21.1.0, SVG Export Plug-In . SVG Version: 6.00 Build 0)  -->
<svg version="1.1" id="Layer_1" xmlns="http://www.w3.org/2000/svg" xmlns:xlink="http://www.w3.org/1999/xlink" x="0px" y="0px"
	 viewBox="0 0 400 102.4" style="enable-background:new 0 0 400 102.4;" xml:space="preserve">
<style type="text/css">
	.st0{fill:#F6AD1E;}
	.st1{fill:#397A8A;}
</style>
<g>
	<polygon class="st0" points="387.9,54.5 390.7,63.3 400,63.3 392.5,68.7 395.4,77.6 387.9,72.1 380.4,77.6 383.2,68.7 375.7,63.3 
		385,63.3 	"/>
</g>
<path class="st1" d="M54.1,70C48.3,75.7,39.5,78,30.3,78c-7.9,0-16.3-2.1-22.5-7.7C3.4,66.2,0,59.9,0,52.8h14c0,3.7,1.7,7,3.9,9.2
	c3.2,3.2,8.3,4,12.6,4c5.2,0,10.2-1.1,13-4c1.7-1.8,3-3.6,3-7.2c0-5.5-4.2-8.1-8.9-8.9c-5.1-1-11.7-1.2-16.6-2
	c-10.4-1.7-19.1-8.5-19.1-21C1.9,17,4.6,12,8.5,8.1c5-4.9,13.2-7.9,22-7.9c8.1,0,15.9,2.5,21,7.3c4.5,4.2,7.5,9.7,7.6,16h-14
	c-0.1-2.6-1.5-5.5-3.3-7.4c-2.4-2.5-7.4-4-11.4-4c-4.2,0-9.1,1-12.2,4.1c-1.6,1.7-2.5,3.6-2.5,6.4c0,4.9,3.2,7.4,7.6,8.2
	c4.8,0.7,11.4,1.3,16.3,1.9c11.2,1.6,20.7,8.9,20.7,21.7C60.3,61.3,57.8,66.2,54.1,70z M112,73.6c-3.4,2.8-7.8,4.4-13.5,4.4
	c-6.6,0-11.9-2.3-14.4-5.4v25.1H70.9V21.5h11.4l0.8,6c3.3-5.1,9.4-7.3,15.5-7.3c5.5,0,10,1.9,13.4,4.7c6.6,5.4,9.9,13.7,9.9,24.1
	C121.9,59.8,118.6,68.1,112,73.6z M104.9,35.7c-1.9-2.4-4.8-4.3-8.9-4.3c-10.4,0-12.5,9.9-12.5,17.8c0,7.9,2.1,17.7,12.5,17.7
	c4.1,0,7-1.9,8.9-4.3c2.8-3.6,3.5-8.6,3.5-13.4C108.4,44.4,107.7,39.3,104.9,35.7z M148.2,77.3c-9,0-15.1-4.3-15.1-14.8V0h13.4v60.2
	c0,3.2,0.7,5.3,5.3,5.3c1.2,0,1.5-0.1,2.2-0.1v11.1C151.4,77.1,150.8,77.3,148.2,77.3z M199.3,76.6l-1-7.2
	c-2.6,5.4-8.8,8.6-15.8,8.6c-11.8,0-19.1-7.9-19.1-19.7V21.5h13.2v33.8c0,6.5,2.5,10.5,9.5,10.5c3.1,0,5.2-1.2,6.8-2.8
	c3.2-3,4-8,4-12.4V21.5h13.2v55.1H199.3z M253.2,33.3c-9.3,0-14.2,6.7-14.2,15.6v27.8h-13.4V21.5h11.2l1.2,8.3c2.5-6.4,9.1-9,15.6-9
	c1.4,0,2.8,0.1,4.1,0.3v12.7C256.3,33.5,254.7,33.3,253.2,33.3z M287.2,102.4c-6.7,0-13.8-0.5-19.5-4.6c-4.2-3-6.7-6.9-6.7-12.1
	c0-4.8,2.3-9.1,6.6-11.2c-3.5-1.9-5.5-5.8-5.5-9.4c0-4.7,2.1-8.4,6.6-11.1c-3.4-3.4-5.5-7.9-5.5-13.6c0-13.1,10.2-20.2,22.6-20.2
	c4.6,0,8.9,1.3,12.5,3.4c2.3-4.8,6.6-6.9,11.2-6.9c0.9,0,2.8,0,3.6,0.2v10.3c-0.3,0-0.7-0.1-1.1-0.1c-3.1,0-5.8,0.8-6.7,3.5
	c1.8,3,2.9,6.3,2.9,10c0,12.6-10.6,20-22.5,20c-3.1,0-6.1-0.5-8.9-1.5c-1.3,0.7-2.8,2.1-2.8,3.9c0,3.3,3.3,4,6,4h9.1
	c5.5,0,12.7,0.1,17.9,3.7c4.8,3.3,6.7,7.9,6.7,13.2C313.8,98.5,299.5,102.4,287.2,102.4z M285.8,30.1c-6,0-9.8,4.3-9.8,10.3
	c0,5.9,3.7,10.2,9.8,10.2c6,0,9.8-4.2,9.8-10.2C295.5,34.4,291.8,30.1,285.8,30.1z M288.2,77.5h-10.4c-2.9,0.8-5,3.3-5,6.8
	c0,7,8.7,7.6,13.9,7.6c5.3,0,14.6-0.3,14.6-7.6C301.3,77.5,293.2,77.5,288.2,77.5z M368,53.2h-36.9c-0.1,4.2,1.4,8.3,4,10.8
	c1.9,1.8,4.6,3.4,8.2,3.4c3.8,0,6.1-0.7,8.1-2.6c1.2-1.2,2.1-2.7,2.6-4.7h12.7c-0.3,3.3-2.5,7.6-4.7,10.2
	c-4.7,5.5-11.6,7.7-18.5,7.7c-7.5,0-13-2.6-17.4-6.8c-5.5-5.3-8.5-13-8.5-22c0-8.8,2.7-16.6,8-22c4.1-4.2,10.1-7,17.6-7
	c8.2,0,15.6,3.3,20.1,10.2c4,6,5,12.3,4.8,19.2C368.1,49.5,368,52,368,53.2z M351.5,33.9c-1.8-1.9-4.6-3.2-8.4-3.2
	c-4,0-7.3,1.7-9.2,4.2c-1.9,2.4-2.8,5-2.9,8.6h23.8C354.8,39.4,353.6,36.2,351.5,33.9z"/>
</svg>
