<?xml version="1.0" encoding="utf-8"?>
<!-- Generator: Adobe Illustrator 14.0.0, SVG Export Plug-In . SVG Version: 6.00 Build 43363)  -->
<!DOCTYPE svg PUBLIC "-//W3C//DTD SVG 1.1//EN" "http://www.w3.org/Graphics/SVG/1.1/DTD/svg11.dtd">
<svg version="1.1" id="Layer_1" xmlns="http://www.w3.org/2000/svg" xmlns:xlink="http://www.w3.org/1999/xlink" x="0px" y="0px"
	 width="400px" height="102.387px" viewBox="0 0 400 102.387" enable-background="new 0 0 400 102.387" xml:space="preserve">
<g>
	<g>
		<path fill="#C4F3F8" d="M54.052,69.952c-5.721,5.725-14.52,8.055-23.741,8.055c-7.945,0-16.322-2.117-22.465-7.737
			C3.392,66.242,0,59.885,0,52.785h13.989c0,3.709,1.698,6.992,3.923,9.221c3.179,3.178,8.268,4.027,12.613,4.027
			c5.194,0,10.175-1.062,13.035-4.027c1.697-1.803,2.969-3.604,2.969-7.209c0-5.512-4.24-8.055-8.903-8.903
			c-5.085-0.954-11.659-1.164-16.64-2.012C10.598,42.184,1.907,35.4,1.907,22.896c0-5.938,2.651-10.919,6.573-14.838
			c4.981-4.876,13.249-7.95,22.044-7.95c8.055,0,15.899,2.543,20.984,7.314c4.454,4.236,7.524,9.748,7.63,16.001H45.152
			c-0.108-2.648-1.484-5.509-3.287-7.419c-2.438-2.543-7.419-4.027-11.446-4.027c-4.24,0-9.116,0.953-12.191,4.135
			c-1.588,1.695-2.542,3.602-2.542,6.357c0,4.876,3.179,7.419,7.632,8.163c4.768,0.74,11.446,1.271,16.322,1.907
			c11.233,1.589,20.663,8.903,20.663,21.726C60.304,61.262,57.762,66.242,54.052,69.952z"/>
		<path fill="#C4F3F8" d="M112.034,73.557c-3.392,2.756-7.846,4.45-13.462,4.45c-6.569,0-11.868-2.33-14.411-5.403V97.72H70.913
			V21.517h11.445l0.846,6.043c3.286-5.09,9.434-7.314,15.477-7.314c5.508,0,9.962,1.907,13.354,4.663
			c6.57,5.407,9.856,13.675,9.856,24.059C121.891,59.777,118.604,68.149,112.034,73.557z M104.933,35.719
			c-1.906-2.438-4.771-4.346-8.903-4.346c-10.387,0-12.508,9.857-12.508,17.808c0,7.949,2.121,17.698,12.508,17.698
			c4.133,0,6.997-1.907,8.903-4.346c2.756-3.602,3.496-8.586,3.496-13.353C108.429,44.412,107.688,39.323,104.933,35.719z"/>
		<path fill="#C4F3F8" d="M148.182,77.266c-9.008,0-15.051-4.344-15.051-14.838V0h13.353v60.203c0,3.18,0.744,5.299,5.303,5.299
			c1.163,0,1.48-0.104,2.225-0.104v11.128C151.36,77.054,150.829,77.266,148.182,77.266z"/>
		<path fill="#C4F3F8" d="M199.269,76.631l-0.953-7.207c-2.648,5.404-8.795,8.583-15.791,8.583c-11.765,0-19.078-7.946-19.078-19.71
			v-36.78h13.248v33.811c0,6.466,2.546,10.493,9.539,10.493c3.073,0,5.193-1.167,6.783-2.756c3.182-2.969,4.027-7.95,4.027-12.4
			V21.517h13.248v55.114H199.269z"/>
		<path fill="#C4F3F8" d="M253.224,33.28c-9.327,0-14.202,6.679-14.202,15.582v27.769h-13.354V21.517h11.234l1.165,8.268
			c2.544-6.36,9.114-9.009,15.579-9.009c1.379,0,2.756,0.105,4.135,0.318v12.718C256.297,33.493,254.707,33.28,253.224,33.28z"/>
		<path fill="#C4F3F8" d="M287.247,102.387c-6.679,0-13.779-0.53-19.504-4.558c-4.237-2.97-6.676-6.892-6.676-12.082
			c0-4.771,2.33-9.116,6.571-11.237c-3.497-1.906-5.513-5.83-5.513-9.43c0-4.667,2.12-8.377,6.574-11.133
			c-3.393-3.391-5.513-7.945-5.513-13.565c0-13.141,10.175-20.241,22.575-20.241c4.559,0,8.902,1.271,12.504,3.391
			c2.334-4.771,6.574-6.891,11.236-6.891c0.85,0,2.756,0,3.605,0.213v10.279c-0.318,0-0.744-0.105-1.062-0.105
			c-3.073,0-5.83,0.849-6.675,3.497c1.799,2.968,2.861,6.255,2.861,9.964c0,12.613-10.602,20.032-22.47,20.032
			c-3.074,0-6.147-0.531-8.904-1.484c-1.271,0.74-2.756,2.12-2.756,3.923c0,3.282,3.287,4.026,6.043,4.026h9.113
			c5.512,0,12.721,0.105,17.911,3.71c4.771,3.282,6.679,7.949,6.679,13.248C313.849,98.464,299.542,102.387,287.247,102.387z
			 M285.763,30.103c-6.043,0-9.752,4.344-9.752,10.279c0,5.938,3.709,10.175,9.752,10.175c6.042,0,9.752-4.237,9.752-10.175
			C295.515,34.447,291.805,30.103,285.763,30.103z M288.2,77.479h-10.388c-2.86,0.849-4.98,3.282-4.98,6.782
			c0,6.994,8.69,7.633,13.884,7.633c5.299,0,14.624-0.321,14.624-7.633C301.34,77.479,293.181,77.479,288.2,77.479z"/>
		<path fill="#C4F3F8" d="M368.013,53.207h-36.882c-0.104,4.24,1.377,8.268,4.028,10.811c1.906,1.803,4.558,3.392,8.158,3.392
			c3.818,0,6.147-0.74,8.059-2.647c1.164-1.167,2.117-2.651,2.647-4.666h12.718c-0.318,3.287-2.543,7.631-4.662,10.174
			c-4.664,5.512-11.552,7.737-18.548,7.737c-7.524,0-13.035-2.647-17.381-6.784c-5.512-5.298-8.48-13.035-8.48-22.042
			c0-8.799,2.651-16.641,7.95-22.048c4.132-4.236,10.069-6.992,17.593-6.992c8.163,0,15.582,3.283,20.137,10.174
			c4.026,6.04,4.984,12.295,4.771,19.184C368.12,49.498,368.013,52.041,368.013,53.207z M351.481,33.916
			c-1.803-1.907-4.56-3.179-8.373-3.179c-4.027,0-7.313,1.697-9.222,4.241c-1.907,2.438-2.756,4.98-2.86,8.585h23.846
			C354.768,39.428,353.601,36.249,351.481,33.916z"/>
	</g>
	<polygon fill="#F6AD1E" points="387.866,54.482 390.729,63.306 400,63.306 392.497,68.747 395.365,77.557 387.866,72.121 
		380.363,77.557 383.233,68.747 375.732,63.306 385.001,63.306 	"/>
</g>
</svg>
